<svg width="15" height="12" viewBox="0 0 15 12" fill="none" xmlns="http://www.w3.org/2000/svg">
<path d="M7.77459 0.241071C7.40847 0.562499 7.40847 1.08364 7.77459 1.40506L11.7992 4.93841H0.9375C0.419733 4.93841 0 5.30691 0 5.76147C0 6.21604 0.419733 6.58454 0.9375 6.58454H11.7992L7.77459 10.1179C7.40847 10.4393 7.40847 10.9605 7.77459 11.2819C8.1407 11.6033 8.7343 11.6033 9.10041 11.2819L14.7254 6.34347C14.9012 6.18912 15 5.97976 15 5.76147C15 5.54318 14.9012 5.33383 14.7254 5.17948L9.10041 0.241071C8.7343 -0.080357 8.1407 -0.080357 7.77459 0.241071Z" fill="#3499FD"/>
</svg>
