<svg width="15" height="12" viewBox="0 0 15 12" fill="none" xmlns="http://www.w3.org/2000/svg">
<path d="M7.22541 0.241071C7.59153 0.562499 7.59153 1.08364 7.22541 1.40506L3.20082 4.93841H14.0625C14.5803 4.93841 15 5.30691 15 5.76147C15 6.21604 14.5803 6.58454 14.0625 6.58454H3.20082L7.22541 10.1179C7.59153 10.4393 7.59153 10.9605 7.22541 11.2819C6.8593 11.6033 6.2657 11.6033 5.89959 11.2819L0.274587 6.34347C0.098772 6.18912 0 5.97976 0 5.76147C0 5.54318 0.0987721 5.33383 0.274587 5.17948L5.89959 0.241071C6.2657 -0.080357 6.8593 -0.080357 7.22541 0.241071Z" fill="#3499FD"/>
</svg>
