<svg width="10" height="12" viewBox="0 0 10 12" fill="none" xmlns="http://www.w3.org/2000/svg">
<path d="M9.70711 6.29289C10.0976 6.68342 10.0976 7.31658 9.70711 7.70711L5.70711 11.7071C5.31658 12.0976 4.68342 12.0976 4.29289 11.7071L0.292892 7.70711C-0.0976327 7.31658 -0.0976327 6.68342 0.292892 6.29289C0.683416 5.90237 1.31658 5.90237 1.70711 6.29289L4 8.58579L4 1C4 0.447715 4.44771 -2.42698e-07 5 -2.18557e-07C5.55228 -1.94416e-07 6 0.447715 6 1L6 8.58579L8.29289 6.29289C8.68342 5.90237 9.31658 5.90237 9.70711 6.29289Z" fill="#0D0D0D"/>
</svg>
