<svg width="11" height="18" viewBox="0 0 11 18" fill="none" xmlns="http://www.w3.org/2000/svg">
<path d="M2 4C3.10457 4 4 3.10457 4 2C4 0.895431 3.10457 0 2 0C0.895431 0 0 0.895431 0 2C0 3.10457 0.895431 4 2 4Z" fill="black"/>
<path d="M2 11C3.10457 11 4 10.1046 4 9C4 7.89543 3.10457 7 2 7C0.895431 7 0 7.89543 0 9C0 10.1046 0.895431 11 2 11Z" fill="black"/>
<path d="M4 16C4 17.1046 3.10457 18 2 18C0.895431 18 0 17.1046 0 16C0 14.8954 0.895431 14 2 14C3.10457 14 4 14.8954 4 16Z" fill="black"/>
<path d="M9 4C10.1046 4 11 3.10457 11 2C11 0.895431 10.1046 0 9 0C7.89543 0 7 0.895431 7 2C7 3.10457 7.89543 4 9 4Z" fill="black"/>
<path d="M11 9C11 10.1046 10.1046 11 9 11C7.89543 11 7 10.1046 7 9C7 7.89543 7.89543 7 9 7C10.1046 7 11 7.89543 11 9Z" fill="black"/>
<path d="M9 18C10.1046 18 11 17.1046 11 16C11 14.8954 10.1046 14 9 14C7.89543 14 7 14.8954 7 16C7 17.1046 7.89543 18 9 18Z" fill="black"/>
</svg>
