<svg width="16" height="19" viewBox="0 0 16 19" fill="none" xmlns="http://www.w3.org/2000/svg">
<path d="M5 2.10502C4.44772 2.10502 4 2.55635 4 3.11309C4 3.66983 4.44772 4.12117 5 4.12117C5.55228 4.12117 6 3.66983 6 3.11309C6 2.55635 5.55228 2.10502 5 2.10502ZM2.17071 2.10502C2.58254 0.930416 3.69378 0.0888672 5 0.0888672C6.30622 0.0888672 7.41746 0.930416 7.82929 2.10502H15C15.5523 2.10502 16 2.55635 16 3.11309C16 3.66983 15.5523 4.12117 15 4.12117H7.82929C7.41746 5.29577 6.30622 6.13731 5 6.13731C3.69378 6.13731 2.58254 5.29577 2.17071 4.12117H1C0.447715 4.12117 0 3.66983 0 3.11309C0 2.55635 0.447715 2.10502 1 2.10502H2.17071ZM11 8.15346C10.4477 8.15346 10 8.60479 10 9.16154C10 9.71828 10.4477 10.1696 11 10.1696C11.5523 10.1696 12 9.71828 12 9.16154C12 8.60479 11.5523 8.15346 11 8.15346ZM8.17071 8.15346C8.58254 6.97886 9.69378 6.13731 11 6.13731C12.3062 6.13731 13.4175 6.97886 13.8293 8.15346H15C15.5523 8.15346 16 8.60479 16 9.16154C16 9.71828 15.5523 10.1696 15 10.1696H13.8293C13.4175 11.3442 12.3062 12.1858 11 12.1858C9.69378 12.1858 8.58254 11.3442 8.17071 10.1696H1C0.447715 10.1696 0 9.71828 0 9.16154C0 8.60479 0.447715 8.15346 1 8.15346H8.17071ZM5 14.2019C4.44772 14.2019 4 14.6532 4 15.21C4 15.7667 4.44772 16.2181 5 16.2181C5.55228 16.2181 6 15.7667 6 15.21C6 14.6532 5.55228 14.2019 5 14.2019ZM2.17071 14.2019C2.58254 13.0273 3.69378 12.1858 5 12.1858C6.30622 12.1858 7.41746 13.0273 7.82929 14.2019H15C15.5523 14.2019 16 14.6532 16 15.21C16 15.7667 15.5523 16.2181 15 16.2181H7.82929C7.41746 17.3927 6.30622 18.2342 5 18.2342C3.69378 18.2342 2.58254 17.3927 2.17071 16.2181H1C0.447715 16.2181 0 15.7667 0 15.21C0 14.6532 0.447715 14.2019 1 14.2019H2.17071Z" fill="#0D0D0D"/>
</svg>
