<svg width="15" height="14" viewBox="0 0 15 14" fill="none" xmlns="http://www.w3.org/2000/svg">
<path d="M0.70175 0.2792C1.08143 -0.0930666 1.697 -0.0930666 2.07668 0.2792L7.22255 5.32464L12.3684 0.2792C12.7481 -0.0930666 13.3637 -0.0930666 13.7433 0.2792C14.123 0.651466 14.123 1.25503 13.7433 1.62729L8.59748 6.67273L13.7433 11.7182C14.123 12.0904 14.123 12.694 13.7433 13.0663C13.3637 13.4385 12.7481 13.4385 12.3684 13.0663L7.22255 8.02082L2.07668 13.0663C1.697 13.4385 1.08143 13.4385 0.70175 13.0663C0.322073 12.694 0.322073 12.0904 0.70175 11.7182L5.84762 6.67273L0.70175 1.62729C0.322073 1.25503 0.322073 0.651466 0.70175 0.2792Z" fill="white"/>
</svg>
