<svg width="14" height="14" viewBox="0 0 14 14" fill="none" xmlns="http://www.w3.org/2000/svg">
<path d="M0.284757 0.2792C0.664434 -0.0930666 1.28001 -0.0930666 1.65969 0.2792L6.80556 5.32464L11.9514 0.2792C12.3311 -0.0930666 12.9467 -0.0930666 13.3264 0.2792C13.706 0.651466 13.706 1.25503 13.3264 1.62729L8.18049 6.67273L13.3264 11.7182C13.706 12.0904 13.706 12.694 13.3264 13.0663C12.9467 13.4385 12.3311 13.4385 11.9514 13.0663L6.80556 8.02082L1.65969 13.0663C1.28001 13.4385 0.664434 13.4385 0.284757 13.0663C-0.0949191 12.694 -0.0949191 12.0904 0.284757 11.7182L5.43063 6.67273L0.284757 1.62729C-0.0949191 1.25503 -0.0949191 0.651466 0.284757 0.2792Z" fill="white"/>
</svg>
