<svg width="20" height="19" viewBox="0 0 20 19" fill="none" xmlns="http://www.w3.org/2000/svg">
<path d="M2 0.0888672C0.895431 0.0888672 0 0.991528 0 2.10502V7.14539V16.2181C0 17.3315 0.895432 18.2342 2 18.2342H18C19.1046 18.2342 20 17.3315 20 16.2181V7.14539V2.10502C20 0.991527 19.1046 0.0888672 18 0.0888672H2ZM18 2.10502V6.13731H2V2.10502H18ZM2 8.15346H18V16.2181H2V8.15346ZM8 4.12117C8 4.67791 7.55228 5.12924 7 5.12924C6.44772 5.12924 6 4.67791 6 4.12117C6 3.56442 6.44772 3.11309 7 3.11309C7.55228 3.11309 8 3.56442 8 4.12117ZM4 5.12924C4.55228 5.12924 5 4.67791 5 4.12117C5 3.56442 4.55228 3.11309 4 3.11309C3.44772 3.11309 3 3.56442 3 4.12117C3 4.67791 3.44772 5.12924 4 5.12924Z" fill="#0D0D0D"/>
</svg>
