<svg width="343" height="175" viewBox="0 0 343 175" fill="none" xmlns="http://www.w3.org/2000/svg">
<path d="M215.106 102.088C217.176 100.029 219.685 99 222.631 99C225.578 99 228.086 100.029 230.157 102.088C232.247 104.127 233.292 106.598 233.292 109.5C233.292 112.402 232.247 114.882 230.157 116.941C228.086 118.98 225.578 120 222.631 120C219.685 120 217.176 118.98 215.106 116.941C213.035 114.882 212 112.402 212 109.5C212 106.598 213.035 104.127 215.106 102.088ZM226.603 105.324C225.548 104.245 224.224 103.706 222.631 103.706C221.038 103.706 219.715 104.245 218.659 105.324C217.604 106.382 217.077 107.775 217.077 109.5C217.077 111.245 217.604 112.647 218.659 113.706C219.715 114.745 221.038 115.265 222.631 115.265C224.244 115.265 225.578 114.745 226.633 113.706C227.688 112.647 228.216 111.245 228.216 109.5C228.216 107.775 227.678 106.382 226.603 105.324Z" fill="#A6A6A6"/>
<path d="M240.56 104.882H240.739C242.053 104.882 243.278 105.127 244.413 105.618C245.547 106.108 246.463 106.775 247.16 107.618L244.562 110C244.104 109.569 243.507 109.216 242.77 108.941C242.034 108.647 241.377 108.5 240.799 108.5H240.56C239.505 108.539 238.978 108.873 238.978 109.5C238.978 109.814 239.127 110.029 239.425 110.147C239.724 110.265 240.262 110.353 241.038 110.412L241.635 110.441C245.518 110.716 247.459 112.304 247.459 115.206C247.459 116.559 246.911 117.686 245.816 118.588C244.721 119.49 243.238 119.951 241.367 119.971H241.247C239.734 119.971 238.311 119.725 236.977 119.235C235.663 118.725 234.667 118.049 233.99 117.206L236.589 114.765C237.066 115.196 237.753 115.559 238.649 115.853C239.545 116.127 240.401 116.265 241.217 116.265H241.337C242.312 116.265 242.8 115.98 242.8 115.412C242.8 115.078 242.631 114.833 242.292 114.676C241.974 114.52 241.406 114.402 240.59 114.324L240.202 114.265C236.28 113.971 234.319 112.48 234.319 109.794C234.319 108.284 234.906 107.098 236.081 106.235C237.275 105.373 238.769 104.922 240.56 104.882Z" fill="#A6A6A6"/>
<path d="M258.745 119.794L256.117 115.794C255.779 115.284 255.46 114.941 255.162 114.765C254.863 114.569 254.455 114.471 253.937 114.471H253.549V119.794H248.89V99.2059H253.549V110.029H253.907C254.425 110.029 254.833 109.941 255.132 109.765C255.43 109.569 255.749 109.225 256.087 108.735L258.476 105.088H263.643L260.029 110.5C259.79 110.853 259.482 111.216 259.103 111.588C258.725 111.941 258.417 112.167 258.178 112.265C258.437 112.343 258.745 112.559 259.103 112.912C259.482 113.265 259.8 113.627 260.059 114L263.911 119.794H258.745Z" fill="#A6A6A6"/>
<path d="M271.357 104.882C273.487 104.882 275.299 105.627 276.792 107.118C278.285 108.588 279.032 110.363 279.032 112.441C279.032 114.52 278.285 116.294 276.792 117.765C275.299 119.235 273.487 119.971 271.357 119.971C269.227 119.971 267.415 119.235 265.922 117.765C264.449 116.294 263.712 114.52 263.712 112.441C263.712 110.343 264.459 108.559 265.952 107.088C267.445 105.618 269.247 104.882 271.357 104.882ZM273.447 110.176C272.85 109.608 272.153 109.324 271.357 109.324C270.561 109.324 269.864 109.608 269.267 110.176C268.669 110.745 268.371 111.5 268.371 112.441C268.371 113.382 268.669 114.137 269.267 114.706C269.864 115.255 270.561 115.529 271.357 115.529C272.153 115.529 272.85 115.255 273.447 114.706C274.045 114.137 274.343 113.382 274.343 112.441C274.343 111.5 274.045 110.745 273.447 110.176Z" fill="#A6A6A6"/>
<path d="M280.741 119.794V99.2059H285.429V119.794H280.741Z" fill="#A6A6A6"/>
<path d="M287.649 115.971C288.166 115.52 288.803 115.294 289.56 115.294C290.316 115.294 290.953 115.52 291.471 115.971C292.009 116.422 292.277 116.98 292.277 117.647C292.277 118.314 292.009 118.873 291.471 119.324C290.953 119.775 290.316 120 289.56 120C288.803 120 288.166 119.775 287.649 119.324C287.131 118.873 286.872 118.314 286.872 117.647C286.872 116.98 287.131 116.422 287.649 115.971Z" fill="#A6A6A6"/>
<path d="M298.584 103.382C298.067 103.833 297.43 104.059 296.673 104.059C295.917 104.059 295.28 103.833 294.762 103.382C294.244 102.931 293.986 102.373 293.986 101.706C293.986 101.059 294.244 100.51 294.762 100.059C295.3 99.5882 295.937 99.3529 296.673 99.3529C297.41 99.3529 298.037 99.5882 298.555 100.059C299.092 100.51 299.361 101.059 299.361 101.706C299.361 102.373 299.102 102.931 298.584 103.382ZM294.344 119.794V105.088H299.003V119.794H294.344Z" fill="#A6A6A6"/>
<path d="M309.922 104.882C312.072 104.882 313.695 105.539 314.79 106.853C315.905 108.167 316.462 109.922 316.462 112.118V119.794H311.803V112.382C311.803 110.343 310.927 109.324 309.175 109.324C307.384 109.324 306.488 110.373 306.488 112.471V119.794H301.829V105.088H304.905L305.234 106.853C306.269 105.539 307.832 104.882 309.922 104.882Z" fill="#A6A6A6"/>
<path d="M327.076 99.0588V103.235H326.808C325.991 103.235 325.394 103.343 325.016 103.559C324.638 103.775 324.448 104.206 324.448 104.853V105.088H327.076V109.529H324.389V119.824H319.73V109.529H317.908V105.088H319.82V104.735C319.82 102.833 320.437 101.373 321.671 100.353C322.906 99.3333 324.548 98.8922 326.599 99.0294L327.076 99.0588Z" fill="#A6A6A6"/>
<path d="M335.325 104.882C337.455 104.882 339.267 105.627 340.76 107.118C342.253 108.588 343 110.363 343 112.441C343 114.52 342.253 116.294 340.76 117.765C339.267 119.235 337.455 119.971 335.325 119.971C333.195 119.971 331.383 119.235 329.89 117.765C328.417 116.294 327.68 114.52 327.68 112.441C327.68 110.343 328.427 108.559 329.92 107.088C331.413 105.618 333.215 104.882 335.325 104.882ZM337.416 110.176C336.818 109.608 336.122 109.324 335.325 109.324C334.529 109.324 333.832 109.608 333.235 110.176C332.638 110.745 332.339 111.5 332.339 112.441C332.339 113.382 332.638 114.137 333.235 114.706C333.832 115.255 334.529 115.529 335.325 115.529C336.122 115.529 336.818 115.255 337.416 114.706C338.013 114.137 338.312 113.382 338.312 112.441C338.312 111.5 338.013 110.745 337.416 110.176Z" fill="#A6A6A6"/>
<path d="M136.42 147.112C140.597 144.404 146.183 145.589 148.896 149.758C151.61 153.927 150.423 159.503 146.246 162.211C139.809 166.383 132.842 169.578 125.575 171.726C118.268 173.886 110.695 175 103.086 175C81.1958 175 61.3765 166.143 47.0304 151.824C32.6844 137.504 23.8105 117.722 23.8105 95.873C23.8105 89.5331 24.5589 83.3676 25.9703 77.4591L12.3545 100.041C12.4308 100.109 12.5063 100.18 12.5795 100.251C13.9245 101.559 14.7574 103.366 14.7574 105.361C14.7574 107.355 13.9249 109.162 12.5795 110.471C11.2446 111.768 9.40526 112.572 7.37869 112.572C5.35211 112.572 3.51273 111.768 2.17791 110.471C0.832518 109.162 0 107.355 0 105.361C0 103.366 0.832895 101.559 2.17791 100.251C3.51273 98.9535 5.35211 98.15 7.37869 98.15C8.27083 98.15 9.12713 98.3056 9.91964 98.5907L23.9505 75.3199C23.0799 74.6743 22.2549 73.9733 21.4817 73.2214C17.0598 68.922 14.3245 62.9829 14.3245 56.4257C14.3245 49.8685 17.0598 43.9294 21.4817 39.63C25.8801 35.3535 31.9455 32.7081 38.6339 32.7081C42.1176 32.7081 45.4322 33.4265 48.4306 34.7185L61.7301 12.6602C61.6014 12.5513 61.4769 12.4379 61.3561 12.3208C60.0107 11.0122 59.1782 9.20527 59.1782 7.21076C59.1782 5.21625 60.0111 3.40894 61.3561 2.10074C62.6909 0.803456 64.5303 0 66.5569 0C68.5834 0 70.4228 0.803456 71.7577 2.10074C73.1027 3.40894 73.9356 5.21625 73.9356 7.21076C73.9356 9.20527 73.103 11.0122 71.7577 12.3208C70.4228 13.6181 68.5834 14.4215 66.5569 14.4215C65.7349 14.4215 64.9439 14.2893 64.2046 14.0456L50.9715 35.9931L51.1481 36.096C65.0602 24.043 83.2193 16.746 103.086 16.746C123.471 16.746 142.207 24.4819 156.351 37.2889C170.461 50.0651 179.976 67.9276 181.959 88.2181C182.428 93.1669 178.788 97.5583 173.83 98.0257C168.872 98.4932 164.472 94.8605 164.004 89.9117C162.478 74.2972 155.116 60.5153 144.192 50.6241C133.303 40.7642 118.845 34.8085 103.086 34.8085C87.3532 34.8085 73.0083 40.7367 62.1697 50.4749C62.6747 52.3772 62.9434 54.3709 62.9434 56.4257C62.9434 62.9829 60.2077 68.9216 55.7858 73.2211C52.6286 76.291 48.6121 78.5205 44.1231 79.5342C42.6795 84.7346 41.907 90.2134 41.907 95.873C41.907 112.736 48.7551 128.003 59.8254 139.053C70.8961 150.103 86.1912 156.938 103.086 156.938C109.052 156.938 114.911 156.087 120.486 154.439C126.102 152.779 131.472 150.319 136.42 147.112ZM10.6118 102.271C9.78869 101.47 8.64558 100.975 7.37869 100.975C6.1118 100.975 4.96869 101.47 4.14561 102.271C3.33347 103.06 2.83041 104.154 2.83041 105.361C2.83041 106.568 3.33347 107.661 4.14561 108.451C4.96869 109.251 6.1118 109.746 7.37869 109.746C8.64558 109.746 9.78869 109.251 10.6118 108.451C11.4239 107.661 11.927 106.568 11.927 105.361C11.927 104.154 11.4239 103.06 10.6118 102.271ZM69.79 4.12049C68.9669 3.32042 67.8238 2.82509 66.5569 2.82509C65.29 2.82509 64.1469 3.32042 63.3238 4.12049C62.5117 4.91038 62.0086 6.0035 62.0086 7.21076C62.0086 8.41801 62.5117 9.51114 63.3238 10.301C64.1469 11.1011 65.29 11.5964 66.5569 11.5964C67.8238 11.5964 68.9669 11.1011 69.79 10.301C70.6021 9.51114 71.1052 8.41801 71.1052 7.21076C71.1052 6.0035 70.6021 4.91038 69.79 4.12049ZM38.6339 47.0942C43.9344 47.0942 48.2313 51.272 48.2313 56.4257C48.2313 61.579 43.9344 65.7568 38.6339 65.7568C33.3335 65.7568 29.0366 61.579 29.0366 56.4257C29.0366 51.272 33.3335 47.0942 38.6339 47.0942ZM51.3817 44.1497C48.129 40.9868 43.6223 39.0303 38.6339 39.0303C33.6456 39.0303 29.1385 40.9868 25.8858 44.1494C22.6561 47.2897 20.6586 51.6306 20.6586 56.4257C20.6586 61.2208 22.6565 65.562 25.8858 68.702C29.1385 71.8646 33.6456 73.8211 38.6339 73.8211C43.6223 73.8211 48.129 71.8646 51.3817 68.7017C54.6114 65.5613 56.6093 61.2208 56.6093 56.4257C56.6093 51.6306 54.6114 47.2901 51.3817 44.1497ZM64.242 94.5836C61.7641 93.1556 59.6884 91.4602 58.0155 89.4973C56.3421 87.5348 55.2541 85.6428 54.7507 83.82C54.5416 82.9571 54.6884 82.1935 55.19 81.5306C55.6911 80.868 56.3738 80.4834 57.2377 80.3776C58.2679 80.2284 59.1027 80.396 59.7428 80.8808C60.3828 81.3656 60.7994 82.012 60.993 82.82C61.2119 83.8287 61.8191 85.0028 62.8143 86.3423C63.8091 87.6821 65.1213 88.8212 66.7497 89.7595C68.8027 90.9426 70.5606 91.5144 72.023 91.4749C73.4857 91.4357 74.5367 90.9035 75.1764 89.8793C75.8165 88.8547 75.8353 87.6584 75.2345 86.2907C74.633 84.9226 73.0932 83.1989 70.6138 81.12C67.4415 78.3635 65.4526 75.8243 64.648 73.5032C63.8431 71.1817 64.0246 69.0109 65.193 66.9912C66.2206 65.2147 67.6026 64.0493 69.3394 63.4948C71.0765 62.94 72.9427 62.8545 74.939 63.2391C76.9354 63.6229 78.8359 64.3352 80.6414 65.3756C82.9782 66.7222 84.8375 68.2809 86.2199 70.0528C87.6023 71.8247 88.4518 73.661 88.7684 75.5617C88.9413 76.4044 88.8341 77.1204 88.4461 77.7092C88.0585 78.2987 87.4604 78.6384 86.652 78.7304C85.864 78.7872 85.121 78.5213 84.4228 77.9333C83.7246 77.3449 83.251 76.6545 83.0019 75.8604C82.6004 74.5149 81.9773 73.3894 81.132 72.4843C80.2866 71.5791 79.1911 70.7391 77.8461 69.9639C76.2886 69.0663 74.8187 68.5679 73.4367 68.4677C72.0547 68.3683 71.0719 68.823 70.4877 69.8328C70.1251 70.46 69.9658 71.123 70.01 71.8217C70.0541 72.5204 70.456 73.3555 71.2157 74.3277C71.975 75.2992 73.1997 76.5275 74.8896 78.012C77.243 80.0646 78.9575 81.9348 80.0338 83.623C81.1108 85.3117 81.6781 86.8809 81.7362 88.3308C81.7943 89.7806 81.4203 91.2022 80.6146 92.5951C79.6881 94.1972 78.4182 95.3924 76.8056 96.1815C75.193 96.9703 73.3242 97.2633 71.1995 97.0603C69.0748 96.8576 66.7554 96.032 64.242 94.5836ZM88.4484 94.323L87.2109 88.8736L111.793 83.9538C112.605 83.7722 113.329 83.8875 113.964 84.2999C114.599 84.712 114.995 85.3117 115.153 86.0997C115.347 86.9073 115.244 87.6147 114.846 88.2215C114.449 88.8276 113.843 89.222 113.03 89.4032L88.4484 94.323ZM79.9089 103.333C79.1299 102.884 78.6378 102.287 78.4318 101.542C78.2261 100.796 78.3446 100.04 78.7876 99.274L99.4266 63.5931C99.8697 62.8274 100.466 62.3471 101.216 62.152C101.966 61.9572 102.73 62.0842 103.509 62.5328C104.288 62.9818 104.781 63.5792 104.986 64.3247C105.192 65.0701 105.073 65.8261 104.63 66.5923L83.9914 102.273C83.5484 103.039 82.9517 103.519 82.2019 103.714C81.4524 103.909 80.6878 103.782 79.9089 103.333ZM99.0171 113.996C98.1888 114.122 97.4446 113.961 96.7845 113.511C96.1241 113.06 95.7252 112.424 95.5874 111.602L92.3925 92.2776L98.1042 90.9717L101.413 110.71C101.551 111.533 101.407 112.251 100.981 112.865C100.555 113.478 99.9006 113.855 99.0171 113.996ZM112.591 122.445C109.724 120.793 107.55 118.716 106.071 116.215C104.591 113.714 103.852 111.013 103.855 108.112C103.857 105.211 104.674 102.35 106.306 99.529C107.958 96.6731 110.042 94.5192 112.557 93.0664C115.073 91.6143 117.787 90.902 120.696 90.9306C123.606 90.9588 126.495 91.7992 129.362 93.4517C132.194 95.0835 134.35 97.1503 135.83 99.6515C137.31 102.153 138.048 104.854 138.046 107.755C138.044 110.656 137.216 113.534 135.565 116.39C133.933 119.211 131.868 121.353 129.37 122.815C126.871 124.278 124.167 124.995 121.258 124.967C118.348 124.938 115.459 124.098 112.591 122.445ZM115.311 117.744C117.152 118.804 119.022 119.325 120.921 119.305C122.821 119.285 124.592 118.774 126.234 117.77C127.877 116.766 129.253 115.307 130.361 113.391C131.469 111.475 132.053 109.548 132.112 107.609C132.171 105.67 131.735 103.874 130.803 102.222C129.87 100.571 128.484 99.2141 126.643 98.1534C124.802 97.0927 122.932 96.5721 121.032 96.5921C119.133 96.612 117.348 97.1273 115.677 98.1383C114.007 99.149 112.618 100.612 111.51 102.528C110.402 104.444 109.832 106.367 109.8 108.299C109.768 110.231 110.218 112.023 111.151 113.674C112.083 115.327 113.47 116.683 115.311 117.744ZM133.55 132.573C132.83 131.043 132.551 129.362 132.715 127.529C132.878 125.696 133.504 123.84 134.592 121.959L151.091 93.4351C151.534 92.6693 152.144 92.1849 152.922 91.983C153.7 91.7811 154.478 91.9043 155.257 92.3533C156.036 92.8019 156.532 93.4133 156.745 94.1862C156.959 94.9596 156.844 95.7291 156.401 96.4953L139.901 125.019C139.156 126.308 138.79 127.513 138.802 128.634C138.813 129.756 139.215 130.532 139.988 130.989L144.311 133.548C145.014 133.964 145.454 134.532 145.614 135.274C145.774 136.016 145.632 136.771 145.189 137.537C144.746 138.303 144.048 138.736 143.093 138.837C142.138 138.937 138.136 136.884 137.073 136.274C135.505 135.375 134.325 134.219 133.55 132.573Z" fill="black"/>
</svg>
