<svg width="18" height="19" viewBox="0 0 18 19" fill="none" xmlns="http://www.w3.org/2000/svg">
<path d="M13.2929 0.295253C13.6834 -0.0984177 14.3166 -0.0984177 14.7071 0.295253L17.7071 3.31942C18.0976 3.71309 18.0976 4.35136 17.7071 4.74503L8.70711 13.8175C8.51957 14.0066 8.26522 14.1128 8 14.1128H5C4.44772 14.1128 4 13.6615 4 13.1047V10.0806C4 9.81321 4.10536 9.55681 4.29289 9.36776L13.2929 0.295253ZM6 10.4981V12.0967H7.58579L15.5858 4.03223L14 2.43366L6 10.4981ZM0 4.03223C0 2.91876 0.895431 2.01611 2 2.01611H7C7.55228 2.01611 8 2.46744 8 3.02417C8 3.5809 7.55228 4.03223 7 4.03223H2V16.1289H14V11.0886C14 10.5319 14.4477 10.0806 15 10.0806C15.5523 10.0806 16 10.5319 16 11.0886V16.1289C16 17.2424 15.1046 18.145 14 18.145H2C0.895431 18.145 0 17.2424 0 16.1289V4.03223Z" fill="black"/>
</svg>
