<svg width="16" height="19" fill="none" xmlns="http://www.w3.org/2000/svg"><path d="M5 2.105c-.552 0-1 .451-1 1.008 0 .557.448 1.008 1 1.008s1-.451 1-1.008c0-.557-.448-1.008-1-1.008zm-2.83 0A3.003 3.003 0 015 .089c1.306 0 2.417.841 2.83 2.016H15c.552 0 1 .451 1 1.008 0 .557-.448 1.008-1 1.008H7.83A3.003 3.003 0 015 6.137a3.003 3.003 0 01-2.83-2.016H1c-.552 0-1-.451-1-1.008 0-.557.448-1.008 1-1.008h1.17zM11 8.153c-.552 0-1 .452-1 1.009 0 .556.448 1.008 1 1.008s1-.452 1-1.008c0-.557-.448-1.009-1-1.009zm-2.83 0A3.003 3.003 0 0111 6.137c1.306 0 2.418.842 2.83 2.016H15c.552 0 1 .452 1 1.009 0 .556-.448 1.008-1 1.008h-1.17A3.003 3.003 0 0111 12.186a3.003 3.003 0 01-2.83-2.016H1c-.552 0-1-.452-1-1.008 0-.557.448-1.009 1-1.009h7.17zM5 14.202c-.552 0-1 .451-1 1.008 0 .557.448 1.008 1 1.008s1-.451 1-1.008c0-.557-.448-1.008-1-1.008zm-2.83 0A3.003 3.003 0 015 12.186c1.306 0 2.417.841 2.83 2.016H15c.552 0 1 .451 1 1.008 0 .557-.448 1.008-1 1.008H7.83A3.003 3.003 0 015 18.234a3.003 3.003 0 01-2.83-2.016H1c-.552 0-1-.451-1-1.008 0-.557.448-1.008 1-1.008h1.17z" fill="#0D0D0D"/></svg>