<svg width="18" height="19" fill="none" xmlns="http://www.w3.org/2000/svg"><path d="M13.293.295a.994.994 0 011.414 0l3 3.024c.39.394.39 1.032 0 1.426l-9 9.073a.996.996 0 01-.707.295H5c-.552 0-1-.451-1-1.008V10.08c0-.268.105-.524.293-.713l9-9.073zM6 10.498v1.599h1.586l8-8.065L14 2.434l-8 8.064zM0 4.032C0 2.92.895 2.016 2 2.016h5c.552 0 1 .451 1 1.008 0 .557-.448 1.008-1 1.008H2V16.13h12v-5.04c0-.557.448-1.008 1-1.008s1 .45 1 1.008v5.04a2.008 2.008 0 01-2 2.016H2c-1.105 0-2-.903-2-2.016V4.032z" fill="#000"/></svg>